<?xml version="1.0" encoding="UTF-8"?>
<svg xmlns="http://www.w3.org/2000/svg" style="stroke-dasharray:none; shape-rendering:auto; font-family:'Arial'; text-rendering:auto; fill-opacity:1; color-interpolation:auto; color-rendering:auto; font-size:12; fill:black; stroke:black; image-rendering:auto; stroke-miterlimit:10; stroke-linecap:square; stroke-linejoin:miter; font-style:normal; stroke-width:1; stroke-dashoffset:0; font-weight:normal; stroke-opacity:1;" contentScriptType="text/ecmascript" preserveAspectRatio="xMidYMid meet" zoomAndPan="magnify" version="1.0" contentStyleType="text/css" xml:xlink="http://www.w3.org/1999/xlink" width="1360" height="734"><rect x="0" y="14" width="1360" height="720" ry="0" rx="0" style="stroke:#000000; fill:#FFFFFF" /><g componentSequence="1"><text x="-374" y="7" transform="rotate(270)" text-anchor="middle" style="font-weight:bold;font-size:10px;stroke:none; fill:#434343"><tspan dy="14" x="-374">SwimLane</tspan></text></g><g sequence="1"><ellipse cx="97" cy="87" rx="17" ry="17" stroke-width="1" style="fill:url(#linearGradient66FF6696FF96B6FFB6_134708980);" stroke="336633" /></g><g sequence="2"><rect x="270" y="50" width="106" height="70" ry="5" rx="5" style="fill:url(#linearGradientF8FBFEEDF5FCDEEDFAD4E7F8E2E5E9_113283460);" stroke="191970" /></g><g componentSequence="2"><text x="323" y="65" text-anchor="middle" style="font-weight:bold;font-size:10px;stroke:none; fill:#333399"><tspan dy="14" x="323">09.01 Validação</tspan><tspan dy="14" x="323">de vaga</tspan></text></g><g sequence="3"><polygon points=" 460 70 490 40 520 70 490 100 460 70" style="fill:url(#linearGradientFAFBFCFFFFCC_50271620);" stroke="000000" /></g><g componentSequence="3"><text x="490" y="110" text-anchor="middle" style="font-weight:bold;font-size:10px;stroke:none; fill:#333399"><tspan dy="14" x="490">aprovac</tspan><tspan dy="14" x="490">ao</tspan></text></g><g sequence="4"><ellipse cx="1137" cy="57" rx="17" ry="17" stroke-width="3" style="fill:url(#linearGradientFF6666FF9696FFB6B6_1207802815);" stroke="993333" /></g><g sequence="5"><rect x="430" y="210" width="106" height="84" ry="5" rx="5" style="fill:url(#linearGradientF8FBFEEDF5FCDEEDFAD4E7F8E2E5E9_1958657386);" stroke="191970" /></g><g componentSequence="5"><text x="483" y="225" text-anchor="middle" style="font-weight:bold;font-size:10px;stroke:none; fill:#333399"><tspan dy="14" x="483">Criação</tspan><tspan dy="14" x="483">alteração</tspan><tspan dy="14" x="483">comunicado</tspan></text></g><g sequence="6"><rect x="600" y="110" width="106" height="84" ry="5" rx="5" style="fill:url(#linearGradientF8FBFEEDF5FCDEEDFAD4E7F8E2E5E9_1995464392);" stroke="191970" /></g><g componentSequence="6"><text x="653" y="125" text-anchor="middle" style="font-weight:bold;font-size:10px;stroke:none; fill:#333399"><tspan dy="14" x="653">09.01</tspan><tspan dy="14" x="653">Aprovação da</tspan><tspan dy="14" x="653">comuniicado</tspan></text></g><g sequence="7"><polygon points=" 770 120 800 90 830 120 800 150 770 120" style="fill:url(#linearGradientFAFBFCFFFFCC_207169191);" stroke="000000" /></g><g componentSequence="7"><text x="800" y="160" text-anchor="middle" style="font-weight:bold;font-size:10px;stroke:none; fill:#333399"><tspan dy="14" x="800">aprovac</tspan><tspan dy="14" x="800">ao</tspan></text></g><g sequence="22"><polygon points=" 150 200 180 170 210 200 180 230 150 200" style="fill:url(#linearGradientFAFBFCFFFFCC_668099824);" stroke="000000" /></g><g componentSequence="22"><text x="180" y="233" text-anchor="middle" style="font-weight:bold;font-size:10px;stroke:none; fill:#333399"><tspan dy="14" x="180">Inicio</tspan></text></g><g sequence="25"><rect x="90" y="460" width="106" height="84" ry="5" rx="5" style="fill:url(#linearGradientF8FBFEEDF5FCDEEDFAD4E7F8E2E5E9_646367373);" stroke="191970" /></g><g componentSequence="25"><text x="143" y="475" text-anchor="middle" style="font-weight:bold;font-size:10px;stroke:none; fill:#333399"><tspan dy="14" x="143">Criação de</tspan><tspan dy="14" x="143">alteração</tspan><tspan dy="14" x="143">comunicado</tspan></text></g><g sequence="27"><rect x="290" y="460" width="106" height="84" ry="5" rx="5" style="fill:url(#linearGradientF8FBFEEDF5FCDEEDFAD4E7F8E2E5E9_1391772811);" stroke="191970" /></g><g componentSequence="27"><text x="343" y="475" text-anchor="middle" style="font-weight:bold;font-size:10px;stroke:none; fill:#333399"><tspan dy="14" x="343">Aprovacao</tspan><tspan dy="14" x="343">Comunicao</tspan><tspan dy="14" x="343">interna</tspan></text></g><g sequence="32"><rect x="500" y="480" width="106" height="56" ry="5" rx="5" style="fill:url(#linearGradientF8FBFEEDF5FCDEEDFAD4E7F8E2E5E9_392014956);" stroke="191970" /></g><g componentSequence="32"><text x="553" y="497" text-anchor="middle" style="font-weight:bold;font-size:10px;stroke:none; fill:#333399"><tspan dy="14" x="553">Aprovacao RH</tspan></text></g><g sequence="36"><rect x="790" y="460" width="106" height="56" ry="5" rx="5" style="fill:url(#linearGradientF8FBFEEDF5FCDEEDFAD4E7F8E2E5E9_597475219);" stroke="191970" /></g><g componentSequence="36"><text x="843" y="477" text-anchor="middle" style="font-weight:bold;font-size:10px;stroke:none; fill:#333399"><tspan dy="14" x="843">Aprovacao CFO</tspan></text></g><g sequence="39"><polygon points=" 520 375 550 345 580 375 550 405 520 375" style="fill:url(#linearGradientFAFBFCFFFFCC_869194189);" stroke="000000" /></g><g componentSequence="39"><text x="550" y="415" text-anchor="middle" style="font-weight:bold;font-size:10px;stroke:none; fill:#333399"><tspan dy="14" x="550">aprovac</tspan><tspan dy="14" x="550">ao</tspan></text></g><g sequence="40"><polygon points=" 950 476 980 446 1010 476 980 506 950 476" style="fill:url(#linearGradientFAFBFCFFFFCC_1198162851);" stroke="000000" /></g><g componentSequence="40"><text x="980" y="516" text-anchor="middle" style="font-weight:bold;font-size:10px;stroke:none; fill:#333399"><tspan dy="14" x="980">aprovac</tspan><tspan dy="14" x="980">ao</tspan></text></g><g sequence="41"><polygon points=" 700 427 730 397 760 427 730 457 700 427" style="fill:url(#linearGradientFAFBFCFFFFCC_1034840558);" stroke="000000" /></g><g componentSequence="41"><text x="730" y="467" text-anchor="middle" style="font-weight:bold;font-size:10px;stroke:none; fill:#333399"><tspan dy="14" x="730">aprovac</tspan><tspan dy="14" x="730">ao</tspan></text></g><g sequence="49"><rect x="950" y="330" width="106" height="70" ry="5" rx="5" style="fill:url(#linearGradientF8FBFEEDF5FCDEEDFAD4E7F8E2E5E9_2064132591);" stroke="191970" /></g><g componentSequence="49"><text x="1003" y="345" text-anchor="middle" style="font-weight:bold;font-size:10px;stroke:none; fill:#333399"><tspan dy="14" x="1003">Aprovacao</tspan><tspan dy="14" x="1003">solicitante</tspan></text></g><g sequence="61"><polygon points=" 1020 230 1050 200 1080 230 1050 260 1020 230" style="fill:url(#linearGradientFAFBFCFFFFCC_1053657074);" stroke="000000" /></g><g componentSequence="61"><text x="1050" y="263" text-anchor="middle" style="font-weight:bold;font-size:10px;stroke:none; fill:#333399"><tspan dy="14" x="1050">ap</tspan></text></g><g sequence="74"><ellipse cx="137" cy="607" rx="17" ry="17" stroke-width="1" style="fill:url(#linearGradientFFFF66FFFF96FFFFB6_757689363);" stroke="999900" /></g><g sequence="74"><polygon points=" 123 600 138 600 138 593 153 608 138 623 138 616 123 616" style="stroke:#999900; fill:none" /></g><g sequence="76"><ellipse cx="987" cy="617" rx="17" ry="17" stroke-width="1" style="fill:url(#linearGradientFFFF66FFFF96FFFFB6_1669759297);" stroke="999900" /></g><g sequence="76"><polygon points=" 973 610 988 610 988 603 1003 618 988 633 988 626 973 626" style="stroke:none; fill:#999900" /></g><g sequence="78"><ellipse cx="607" cy="321" rx="17" ry="17" stroke-width="1" style="fill:url(#linearGradientFFFF66FFFF96FFFFB6_1501268879);" stroke="999900" /></g><g sequence="78"><polygon points=" 593 314 608 314 608 307 623 322 608 337 608 330 593 330" style="stroke:none; fill:#999900" /></g><g sequence="80"><ellipse cx="1117" cy="217" rx="17" ry="17" stroke-width="1" style="fill:url(#linearGradientFFFF66FFFF96FFFFB6_198927685);" stroke="999900" /></g><g sequence="80"><polygon points=" 1103 210 1118 210 1118 203 1133 218 1118 233 1118 226 1103 226" style="stroke:none; fill:#999900" /></g><g componentSequence="12"><text x="428" y="89" style="font-size:10px;font-weight:none;stroke:none; fill:#333399" text-anchor="left" /></g><g componentSequence="13"><text x="496" y="176" style="font-size:10px;font-weight:none;stroke:none; fill:#333399" text-anchor="left" /></g><g componentSequence="16"><text x="748" y="146" style="font-size:10px;font-weight:none;stroke:none; fill:#333399" text-anchor="left" /></g><g componentSequence="17"><text x="985" y="97" style="font-size:10px;font-weight:none;stroke:none; fill:#333399" text-anchor="left" /></g><g componentSequence="24"><text x="830" y="74" style="font-size:10px;font-weight:none;stroke:none; fill:#333399" text-anchor="left" /></g><g componentSequence="26"><text x="171" y="359" style="font-size:10px;font-weight:none;stroke:none; fill:#333399" text-anchor="left" /></g><g componentSequence="28"><text x="253" y="502" style="font-size:10px;font-weight:none;stroke:none; fill:#333399" text-anchor="left" /></g><g componentSequence="42"><text x="468" y="443" style="font-size:10px;font-weight:none;stroke:none; fill:#333399" text-anchor="left" /></g><g componentSequence="43"><text x="562" y="463" style="font-size:10px;font-weight:none;stroke:none; fill:#333399" text-anchor="left" /></g><g componentSequence="44"><text x="663" y="474" style="font-size:10px;font-weight:none;stroke:none; fill:#333399" text-anchor="left" /></g><g componentSequence="46"><text x="933" y="493" style="font-size:10px;font-weight:none;stroke:none; fill:#333399" text-anchor="left" /></g><g componentSequence="50"><text x="1146" y="347" style="font-size:10px;font-weight:none;stroke:none; fill:#333399" text-anchor="left" /></g><g componentSequence="51"><text x="1003" y="423" style="font-size:10px;font-weight:none;stroke:none; fill:#333399" text-anchor="left" /></g><g componentSequence="58"><text x="860" y="223" style="font-size:10px;font-weight:none;stroke:none; fill:#333399" text-anchor="left" /></g><g componentSequence="59"><text x="257" y="153" style="font-size:10px;font-weight:none;stroke:none; fill:#333399" text-anchor="left" /></g><g componentSequence="60"><text x="950" y="246" style="font-size:10px;font-weight:none;stroke:none; fill:#333399" text-anchor="left" /></g><g componentSequence="62"><text x="1110" y="137" style="font-size:10px;font-weight:none;stroke:none; fill:#333399" text-anchor="left" /></g><g componentSequence="64"><text x="578" y="202" style="font-size:10px;font-weight:none;stroke:none; fill:#333399" text-anchor="left" /></g><g componentSequence="65"><text x="1003" y="264" style="font-size:10px;font-weight:none;stroke:none; fill:#333399" text-anchor="left" /></g><g componentSequence="66"><text x="339" y="396" style="font-size:10px;font-weight:none;stroke:none; fill:#333399" text-anchor="left" /></g><g componentSequence="67"><text x="785" y="463" style="font-size:10px;font-weight:none;stroke:none; fill:#333399" text-anchor="left" /></g><g componentSequence="68"><text x="676" y="227" style="font-size:10px;font-weight:none;stroke:none; fill:#333399" text-anchor="left" /></g><g componentSequence="70"><text x="1102" y="289" style="font-size:10px;font-weight:none;stroke:none; fill:#333399" text-anchor="left" /></g><g componentSequence="71"><text x="140" y="137" style="font-size:10px;font-weight:none;stroke:none; fill:#333399" text-anchor="left" /></g><g componentSequence="75"><text x="149" y="567" style="font-size:10px;font-weight:none;stroke:none; fill:#333399" text-anchor="left" /></g><g componentSequence="77"><text x="995" y="574" style="font-size:10px;font-weight:none;stroke:none; fill:#333399" text-anchor="left" /></g><g componentSequence="79"><text x="597" y="348" style="font-size:10px;font-weight:none;stroke:none; fill:#333399" text-anchor="left" /></g><g componentSequence="81"><text x="1100" y="228" style="font-size:10px;font-weight:none;stroke:none; fill:#333399" text-anchor="left" /></g><path style="fill:none; stroke:#000000;stroke-width:1" d="M106.0 102.0 L150.0 169.0" /><polygon style="fill:#000000; stroke:#000000;" points=" 149 158 150 169 140 163 146 162" /><path style="fill:none; stroke:#000000;stroke-width:1" d="M376.0 87.0 L459.0 89.0" /><polygon style="fill:#000000; stroke:#000000;" points=" 449 84 459 89 449 94 451 89" /><path style="fill:none; stroke:#000000;stroke-width:1" d="M210.0 186.0 L283.0 120.0" /><polygon style="fill:#000000; stroke:#000000;" points=" 272 123 283 120 279 130 277 125" /><path style="fill:none; stroke:#000000;stroke-width:1" d="M487.0 142.0 L484.0 209.0" /><polygon style="fill:#000000; stroke:#000000;" points=" 489 199 484 209 479 199 484 201" /><path style="fill:none; stroke:#000000;stroke-width:1" d="M520.0 89.0 L1120.0 57.0" /><polygon style="fill:#000000; stroke:#000000;" points=" 1110 53 1120 57 1110 63 1112 57" /><path style="fill:none; stroke:#000000;stroke-width:1" d="M830.0 133.0 L1120.0 61.0" /><polygon style="fill:#000000; stroke:#000000;" points=" 1109 59 1120 61 1111 68 1112 63" /><path style="fill:none; stroke:#000000;stroke-width:1" d="M1010.0 496.0 L1135.0 493.0 L1137.0 74.0" /><polygon style="fill:#000000; stroke:#000000;" points=" 1132 84 1137 74 1142 84 1137 82" /><path style="fill:none; stroke:#000000;stroke-width:1" d="M580.0 378.0 L1122.0 66.0" /><polygon style="fill:#000000; stroke:#000000;" points=" 1111 67 1122 66 1116 75 1115 70" /><path style="fill:none; stroke:#000000;stroke-width:1" d="M760.0 418.0 L1125.0 69.0" /><polygon style="fill:#000000; stroke:#000000;" points=" 1114 72 1125 69 1121 80 1119 75" /><path style="fill:none; stroke:#000000;stroke-width:1" d="M1070.0 199.0 L1130.0 73.0" /><polygon style="fill:#000000; stroke:#000000;" points=" 1121 80 1130 73 1130 84 1127 80" /><path style="fill:none; stroke:#000000;stroke-width:1" d="M536.0 220.0 L599.0 183.0" /><polygon style="fill:#000000; stroke:#000000;" points=" 588 184 599 183 593 192 592 187" /><path style="fill:none; stroke:#000000;stroke-width:1" d="M781.0 192.0 L774.0 213.0 L536.0 244.0" /><polygon style="fill:#000000; stroke:#000000;" points=" 547 248 536 244 545 238 544 243" /><path style="fill:none; stroke:#000000;stroke-width:1" d="M706.0 148.0 L769.0 143.0" /><polygon style="fill:#000000; stroke:#000000;" points=" 759 139 769 143 759 149 761 144" /><path style="fill:none; stroke:#000000;stroke-width:1" d="M174.0 258.0 L148.0 459.0" /><polygon style="fill:#000000; stroke:#000000;" points=" 154 450 148 459 144 448 149 451" /><path style="fill:none; stroke:#000000;stroke-width:1" d="M196.0 502.0 L289.0 502.0" /><polygon style="fill:#000000; stroke:#000000;" points=" 279 497 289 502 279 507 281 502" /><path style="fill:none; stroke:#000000;stroke-width:1" d="M519.0 396.0 L216.0 396.0 L172.0 459.0" /><polygon style="fill:#000000; stroke:#000000;" points=" 182 454 172 459 174 448 177 452" /><path style="fill:none; stroke:#000000;stroke-width:1" d="M138.0 590.0 L140.0 544.0" /><polygon style="fill:#000000; stroke:#000000;" points=" 135 554 140 544 145 554 140 552" /><path style="fill:none; stroke:#000000;stroke-width:1" d="M396.0 474.0 L519.0 411.0" /><polygon style="fill:#000000; stroke:#000000;" points=" 508 411 519 411 512 420 512 415" /><path style="fill:none; stroke:#000000;stroke-width:1" d="M606.0 490.0 L699.0 458.0" /><polygon style="fill:#000000; stroke:#000000;" points=" 688 457 699 458 691 466 691 461" /><path style="fill:none; stroke:#000000;stroke-width:1" d="M551.0 447.0 L552.0 479.0" /><polygon style="fill:#000000; stroke:#000000;" points=" 557 469 552 479 547 469 552 471" /><path style="fill:none; stroke:#000000;stroke-width:1" d="M896.0 491.0 L949.0 495.0" /><polygon style="fill:#000000; stroke:#000000;" points=" 939 489 949 495 939 499 941 494" /><path style="fill:none; stroke:#000000;stroke-width:1" d="M760.0 458.0 L789.0 469.0" /><polygon style="fill:#000000; stroke:#000000;" points=" 781 461 789 469 778 470 782 466" /><path style="fill:none; stroke:#000000;stroke-width:1" d="M580.0 356.0 L597.0 335.0" /><polygon style="fill:#000000; stroke:#000000;" points=" 587 340 597 335 595 346 592 341" /><path style="fill:none; stroke:#000000;stroke-width:1" d="M989.0 445.0 L996.0 400.0" /><polygon style="fill:#000000; stroke:#000000;" points=" 990 409 996 400 999 411 995 408" /><path style="fill:none; stroke:#000000;stroke-width:1" d="M983.0 548.0 L986.0 600.0" /><polygon style="fill:#000000; stroke:#000000;" points=" 990 590 986 600 980 590 986 592" /><path style="fill:none; stroke:#000000;stroke-width:1" d="M1056.0 331.0 L1080.0 316.0 L1105.0 259.0 L1080.0 252.0" /><polygon style="fill:#000000; stroke:#000000;" points=" 1088 260 1080 252 1091 250 1088 254" /><path style="fill:none; stroke:#000000;stroke-width:1" d="M1019.0 229.0 L1018.0 229.0 L990.0 228.0 L999.0 329.0" /><polygon style="fill:#000000; stroke:#000000;" points=" 1003 319 999 329 993 319 998 321" /><path style="fill:none; stroke:#000000;stroke-width:1" d="M1080.0 232.0 L1101.0 223.0" /><polygon style="fill:#000000; stroke:#000000;" points=" 1090 222 1101 223 1094 232 1094 226" /><defs><linearGradient xmlns:xlink="http://www.w3.org/1999/xlink" xlink:href="#linearGradient66FF6696FF96B6FFB6" id="linearGradient66FF6696FF96B6FFB6_134708980" x1="0" y1="70.0" x2="0" y2="105.0" gradientUnits="userSpaceOnUse" xlink:type="simple" xlink:actuate="onLoad" xlink:show="other" /><linearGradient id="linearGradient66FF6696FF96B6FFB6"><stop style="stop-color:#66FF66;stop-opacity:1;" offset="0.0" id="stop66FF66" /><stop style="stop-color:#96FF96;stop-opacity:1;" offset="0.5" id="stop96FF96" /><stop style="stop-color:#B6FFB6;stop-opacity:1;" offset="1.0" id="stopB6FFB6" /></linearGradient><linearGradient xmlns:xlink="http://www.w3.org/1999/xlink" xlink:href="#linearGradientF8FBFEEDF5FCDEEDFAD4E7F8E2E5E9" id="linearGradientF8FBFEEDF5FCDEEDFAD4E7F8E2E5E9_113283460" x1="0" y1="50.0" x2="0" y2="156.0" gradientUnits="userSpaceOnUse" xlink:type="simple" xlink:actuate="onLoad" xlink:show="other" /><linearGradient id="linearGradientF8FBFEEDF5FCDEEDFAD4E7F8E2E5E9"><stop style="stop-color:#F8FBFE;stop-opacity:1;" offset="0.0" id="stopF8FBFE" /><stop style="stop-color:#EDF5FC;stop-opacity:1;" offset="0.25" id="stopEDF5FC" /><stop style="stop-color:#DEEDFA;stop-opacity:1;" offset="0.5" id="stopDEEDFA" /><stop style="stop-color:#D4E7F8;stop-opacity:1;" offset="0.75" id="stopD4E7F8" /><stop style="stop-color:#E2E5E9;stop-opacity:1;" offset="1.0" id="stopE2E5E9" /></linearGradient><linearGradient xmlns:xlink="http://www.w3.org/1999/xlink" xlink:href="#linearGradientFAFBFCFFFFCC" id="linearGradientFAFBFCFFFFCC_50271620" x1="0" y1="40.0" x2="0" y2="100.0" gradientUnits="userSpaceOnUse" xlink:type="simple" xlink:actuate="onLoad" xlink:show="other" /><linearGradient id="linearGradientFAFBFCFFFFCC"><stop style="stop-color:#FAFBFC;stop-opacity:1;" offset="0.0" id="stopFAFBFC" /><stop style="stop-color:#FFFFCC;stop-opacity:1;" offset="1.0" id="stopFFFFCC" /></linearGradient><linearGradient xmlns:xlink="http://www.w3.org/1999/xlink" xlink:href="#linearGradientFF6666FF9696FFB6B6" id="linearGradientFF6666FF9696FFB6B6_1207802815" x1="0" y1="40.0" x2="0" y2="75.0" gradientUnits="userSpaceOnUse" xlink:type="simple" xlink:actuate="onLoad" xlink:show="other" /><linearGradient id="linearGradientFF6666FF9696FFB6B6"><stop style="stop-color:#FF6666;stop-opacity:1;" offset="0.0" id="stopFF6666" /><stop style="stop-color:#FF9696;stop-opacity:1;" offset="0.5" id="stopFF9696" /><stop style="stop-color:#FFB6B6;stop-opacity:1;" offset="1.0" id="stopFFB6B6" /></linearGradient><linearGradient xmlns:xlink="http://www.w3.org/1999/xlink" xlink:href="#linearGradientF8FBFEEDF5FCDEEDFAD4E7F8E2E5E9" id="linearGradientF8FBFEEDF5FCDEEDFAD4E7F8E2E5E9_1958657386" x1="0" y1="210.0" x2="0" y2="316.0" gradientUnits="userSpaceOnUse" xlink:type="simple" xlink:actuate="onLoad" xlink:show="other" /><linearGradient xmlns:xlink="http://www.w3.org/1999/xlink" xlink:href="#linearGradientF8FBFEEDF5FCDEEDFAD4E7F8E2E5E9" id="linearGradientF8FBFEEDF5FCDEEDFAD4E7F8E2E5E9_1995464392" x1="0" y1="110.0" x2="0" y2="216.0" gradientUnits="userSpaceOnUse" xlink:type="simple" xlink:actuate="onLoad" xlink:show="other" /><linearGradient xmlns:xlink="http://www.w3.org/1999/xlink" xlink:href="#linearGradientFAFBFCFFFFCC" id="linearGradientFAFBFCFFFFCC_207169191" x1="0" y1="90.0" x2="0" y2="150.0" gradientUnits="userSpaceOnUse" xlink:type="simple" xlink:actuate="onLoad" xlink:show="other" /><linearGradient xmlns:xlink="http://www.w3.org/1999/xlink" xlink:href="#linearGradientFAFBFCFFFFCC" id="linearGradientFAFBFCFFFFCC_668099824" x1="0" y1="170.0" x2="0" y2="230.0" gradientUnits="userSpaceOnUse" xlink:type="simple" xlink:actuate="onLoad" xlink:show="other" /><linearGradient xmlns:xlink="http://www.w3.org/1999/xlink" xlink:href="#linearGradientF8FBFEEDF5FCDEEDFAD4E7F8E2E5E9" id="linearGradientF8FBFEEDF5FCDEEDFAD4E7F8E2E5E9_646367373" x1="0" y1="460.0" x2="0" y2="566.0" gradientUnits="userSpaceOnUse" xlink:type="simple" xlink:actuate="onLoad" xlink:show="other" /><linearGradient xmlns:xlink="http://www.w3.org/1999/xlink" xlink:href="#linearGradientF8FBFEEDF5FCDEEDFAD4E7F8E2E5E9" id="linearGradientF8FBFEEDF5FCDEEDFAD4E7F8E2E5E9_1391772811" x1="0" y1="460.0" x2="0" y2="566.0" gradientUnits="userSpaceOnUse" xlink:type="simple" xlink:actuate="onLoad" xlink:show="other" /><linearGradient xmlns:xlink="http://www.w3.org/1999/xlink" xlink:href="#linearGradientF8FBFEEDF5FCDEEDFAD4E7F8E2E5E9" id="linearGradientF8FBFEEDF5FCDEEDFAD4E7F8E2E5E9_392014956" x1="0" y1="480.0" x2="0" y2="586.0" gradientUnits="userSpaceOnUse" xlink:type="simple" xlink:actuate="onLoad" xlink:show="other" /><linearGradient xmlns:xlink="http://www.w3.org/1999/xlink" xlink:href="#linearGradientF8FBFEEDF5FCDEEDFAD4E7F8E2E5E9" id="linearGradientF8FBFEEDF5FCDEEDFAD4E7F8E2E5E9_597475219" x1="0" y1="460.0" x2="0" y2="566.0" gradientUnits="userSpaceOnUse" xlink:type="simple" xlink:actuate="onLoad" xlink:show="other" /><linearGradient xmlns:xlink="http://www.w3.org/1999/xlink" xlink:href="#linearGradientFAFBFCFFFFCC" id="linearGradientFAFBFCFFFFCC_869194189" x1="0" y1="345.0" x2="0" y2="405.0" gradientUnits="userSpaceOnUse" xlink:type="simple" xlink:actuate="onLoad" xlink:show="other" /><linearGradient xmlns:xlink="http://www.w3.org/1999/xlink" xlink:href="#linearGradientFAFBFCFFFFCC" id="linearGradientFAFBFCFFFFCC_1198162851" x1="0" y1="446.0" x2="0" y2="506.0" gradientUnits="userSpaceOnUse" xlink:type="simple" xlink:actuate="onLoad" xlink:show="other" /><linearGradient xmlns:xlink="http://www.w3.org/1999/xlink" xlink:href="#linearGradientFAFBFCFFFFCC" id="linearGradientFAFBFCFFFFCC_1034840558" x1="0" y1="397.0" x2="0" y2="457.0" gradientUnits="userSpaceOnUse" xlink:type="simple" xlink:actuate="onLoad" xlink:show="other" /><linearGradient xmlns:xlink="http://www.w3.org/1999/xlink" xlink:href="#linearGradientF8FBFEEDF5FCDEEDFAD4E7F8E2E5E9" id="linearGradientF8FBFEEDF5FCDEEDFAD4E7F8E2E5E9_2064132591" x1="0" y1="330.0" x2="0" y2="436.0" gradientUnits="userSpaceOnUse" xlink:type="simple" xlink:actuate="onLoad" xlink:show="other" /><linearGradient xmlns:xlink="http://www.w3.org/1999/xlink" xlink:href="#linearGradientFAFBFCFFFFCC" id="linearGradientFAFBFCFFFFCC_1053657074" x1="0" y1="200.0" x2="0" y2="260.0" gradientUnits="userSpaceOnUse" xlink:type="simple" xlink:actuate="onLoad" xlink:show="other" /><linearGradient xmlns:xlink="http://www.w3.org/1999/xlink" xlink:href="#linearGradientFFFF66FFFF96FFFFB6" id="linearGradientFFFF66FFFF96FFFFB6_757689363" x1="0" y1="590.0" x2="0" y2="625.0" gradientUnits="userSpaceOnUse" xlink:type="simple" xlink:actuate="onLoad" xlink:show="other" /><linearGradient id="linearGradientFFFF66FFFF96FFFFB6"><stop style="stop-color:#FFFF66;stop-opacity:1;" offset="0.0" id="stopFFFF66" /><stop style="stop-color:#FFFF96;stop-opacity:1;" offset="0.5" id="stopFFFF96" /><stop style="stop-color:#FFFFB6;stop-opacity:1;" offset="1.0" id="stopFFFFB6" /></linearGradient><linearGradient xmlns:xlink="http://www.w3.org/1999/xlink" xlink:href="#linearGradientFFFF66FFFF96FFFFB6" id="linearGradientFFFF66FFFF96FFFFB6_1669759297" x1="0" y1="600.0" x2="0" y2="635.0" gradientUnits="userSpaceOnUse" xlink:type="simple" xlink:actuate="onLoad" xlink:show="other" /><linearGradient xmlns:xlink="http://www.w3.org/1999/xlink" xlink:href="#linearGradientFFFF66FFFF96FFFFB6" id="linearGradientFFFF66FFFF96FFFFB6_1501268879" x1="0" y1="304.0" x2="0" y2="339.0" gradientUnits="userSpaceOnUse" xlink:type="simple" xlink:actuate="onLoad" xlink:show="other" /><linearGradient xmlns:xlink="http://www.w3.org/1999/xlink" xlink:href="#linearGradientFFFF66FFFF96FFFFB6" id="linearGradientFFFF66FFFF96FFFFB6_198927685" x1="0" y1="200.0" x2="0" y2="235.0" gradientUnits="userSpaceOnUse" xlink:type="simple" xlink:actuate="onLoad" xlink:show="other" /></defs></svg>
