<?xml version="1.0" encoding="UTF-8"?>
<svg xmlns="http://www.w3.org/2000/svg" style="stroke-dasharray:none; shape-rendering:auto; font-family:'Arial'; text-rendering:auto; fill-opacity:1; color-interpolation:auto; color-rendering:auto; font-size:12; fill:black; stroke:black; image-rendering:auto; stroke-miterlimit:10; stroke-linecap:square; stroke-linejoin:miter; font-style:normal; stroke-width:1; stroke-dashoffset:0; font-weight:normal; stroke-opacity:1;" contentScriptType="text/ecmascript" preserveAspectRatio="xMidYMid meet" zoomAndPan="magnify" version="1.0" contentStyleType="text/css" xml:xlink="http://www.w3.org/1999/xlink" width="2701" height="733"><rect x="0" y="322" width="2701" height="411" ry="0" rx="0" style="stroke:#000000; fill:#FFFFFF" /><g componentSequence="2"><text x="-527" y="7" transform="rotate(270)" text-anchor="middle" style="font-weight:bold;font-size:10px;stroke:none; fill:#434343"><tspan dy="14" x="-527">RH Empresa solicitante</tspan></text></g><rect x="0" y="0" width="2701" height="320" ry="0" rx="0" style="stroke:#000000; fill:#FFFFFF" /><g componentSequence="1"><text x="-160" y="7" transform="rotate(270)" text-anchor="middle" style="font-weight:bold;font-size:10px;stroke:none; fill:#434343"><tspan dy="14" x="-160">Solicitante</tspan></text></g><g sequence="3"><ellipse cx="297" cy="237" rx="17" ry="17" stroke-width="1" style="fill:url(#linearGradient66FF6696FF96B6FFB6_1874451756);" stroke="336633" /></g><g sequence="4"><rect x="490" y="340" width="106" height="70" ry="5" rx="5" style="fill:url(#linearGradientF8FBFEEDF5FCDEEDFAD4E7F8E2E5E9_1635663531);" stroke="191970" /></g><g componentSequence="4"><text x="543" y="355" text-anchor="middle" style="font-weight:bold;font-size:10px;stroke:none; fill:#333399"><tspan dy="14" x="543">neces abertura</tspan><tspan dy="14" x="543">de chamado?</tspan></text></g><g sequence="6"><polygon points=" 710 390 740 360 770 390 740 420 710 390" style="fill:url(#linearGradientFAFBFCFFFFCC_1698805340);" stroke="000000" /></g><g componentSequence="6"><text x="740" y="423" text-anchor="middle" style="font-weight:bold;font-size:10px;stroke:none; fill:#333399"><tspan dy="14" x="740">|</tspan></text></g><g sequence="8"><rect x="900" y="340" width="106" height="70" ry="5" rx="5" style="fill:url(#linearGradientF8FBFEEDF5FCDEEDFAD4E7F8E2E5E9_541275280);" stroke="191970" /></g><g componentSequence="8"><text x="953" y="355" text-anchor="middle" style="font-weight:bold;font-size:10px;stroke:none; fill:#333399"><tspan dy="14" x="953">abertura de</tspan><tspan dy="14" x="953">chamado</tspan></text></g><g sequence="10"><rect x="690" y="40" width="106" height="70" ry="5" rx="5" style="fill:url(#linearGradientF8FBFEEDF5FCDEEDFAD4E7F8E2E5E9_20110601);" stroke="191970" /></g><g componentSequence="10"><text x="743" y="55" text-anchor="middle" style="font-weight:bold;font-size:10px;stroke:none; fill:#333399"><tspan dy="14" x="743">Problema foi</tspan><tspan dy="14" x="743">resolvido</tspan></text></g><g sequence="12"><polygon points=" 970 89 1000 59 1030 89 1000 119 970 89" style="fill:url(#linearGradientFAFBFCFFFFCC_287912162);" stroke="000000" /></g><g componentSequence="12"><text x="1000" y="122" text-anchor="middle" style="font-weight:bold;font-size:10px;stroke:none; fill:#333399"><tspan dy="14" x="1000">||</tspan></text></g><g sequence="14"><rect x="1070" y="170" width="106" height="70" ry="5" rx="5" style="fill:url(#linearGradientF8FBFEEDF5FCDEEDFAD4E7F8E2E5E9_2041743309);" stroke="191970" /></g><g componentSequence="14"><text x="1123" y="185" text-anchor="middle" style="font-weight:bold;font-size:10px;stroke:none; fill:#333399"><tspan dy="14" x="1123">Retorno ao</tspan><tspan dy="14" x="1123">solicitante</tspan></text></g><g sequence="17"><ellipse cx="1197" cy="107" rx="17" ry="17" stroke-width="3" style="fill:url(#linearGradientFF6666FF9696FFB6B6_1080871903);" stroke="993333" /></g><g sequence="19"><ellipse cx="1117" cy="17" rx="17" ry="17" stroke-width="1" style="fill:url(#linearGradientFFFF66FFFF96FFFFB6_1461820494);" stroke="999900" /></g><g sequence="19"><polygon points=" 1103 10 1118 10 1118 3 1133 18 1118 33 1118 26 1103 26" style="stroke:none; fill:#999900" /></g><g sequence="20"><ellipse cx="547" cy="531" rx="17" ry="17" stroke-width="1" style="fill:url(#linearGradientFFFF66FFFF96FFFFB6_257366120);" stroke="999900" /></g><g sequence="20"><polygon points=" 533 524 548 524 548 517 563 532 548 547 548 540 533 540" style="stroke:#999900; fill:none" /></g><g componentSequence="5"><text x="327" y="405" style="font-size:10px;font-weight:none;stroke:none; fill:#333399" text-anchor="left" /></g><g componentSequence="7"><text x="663" y="391" style="font-size:10px;font-weight:none;stroke:none; fill:#333399" text-anchor="left" /></g><g componentSequence="16"><text x="927" y="207" style="font-size:10px;font-weight:none;stroke:none; fill:#333399" text-anchor="left" /></g><g componentSequence="18"><text x="1115" y="105" style="font-size:10px;font-weight:none;stroke:none; fill:#333399" text-anchor="left"><tspan dy="14" x="1115">Sim</tspan></text></g><g componentSequence="21"><text x="556" y="462" style="font-size:10px;font-weight:none;stroke:none; fill:#333399" text-anchor="left" /></g><g componentSequence="22"><text x="1075" y="55" style="font-size:10px;font-weight:none;stroke:none; fill:#333399" text-anchor="left"><tspan dy="14" x="1075">Nao</tspan></text></g><g componentSequence="23"><text x="845" y="391" style="font-size:10px;font-weight:none;stroke:none; fill:#333399" text-anchor="left"><tspan dy="14" x="845">Sim</tspan></text></g><g componentSequence="24"><text x="893" y="90" style="font-size:10px;font-weight:none;stroke:none; fill:#333399" text-anchor="left" /></g><g componentSequence="25"><text x="751" y="235" style="font-size:10px;font-weight:none;stroke:none; fill:#333399" text-anchor="left"><tspan dy="14" x="751">Nao</tspan></text></g><g componentSequence="26"><text x="1136" y="384" style="font-size:10px;font-weight:none;stroke:none; fill:#333399" text-anchor="left" /></g><path style="fill:none; stroke:#000000;stroke-width:1" d="M297.0 254.0 L296.0 408.0 L489.0 382.0" /><polygon style="fill:#000000; stroke:#000000;" points=" 478 378 489 382 480 388 481 383" /><path style="fill:none; stroke:#000000;stroke-width:1" d="M596.0 382.0 L709.0 399.0" /><polygon style="fill:#000000; stroke:#000000;" points=" 700 393 709 399 698 402 701 398" /><path style="fill:none; stroke:#000000;stroke-width:1" d="M547.0 514.0 L544.0 410.0" /><polygon style="fill:#000000; stroke:#000000;" points=" 539 420 544 410 549 420 544 418" /><path style="fill:none; stroke:#000000;stroke-width:1" d="M770.0 399.0 L899.0 382.0" /><polygon style="fill:#000000; stroke:#000000;" points=" 888 378 899 382 890 388 891 383" /><path style="fill:none; stroke:#000000;stroke-width:1" d="M740.0 359.0 L742.0 110.0" /><polygon style="fill:#000000; stroke:#000000;" points=" 737 120 742 110 747 120 742 118" /><path style="fill:none; stroke:#000000;stroke-width:1" d="M1006.0 384.0 L1126.0 406.0 L1123.0 240.0" /><polygon style="fill:#000000; stroke:#000000;" points=" 1118 250 1123 240 1128 250 1123 248" /><path style="fill:none; stroke:#000000;stroke-width:1" d="M796.0 80.0 L969.0 99.0" /><polygon style="fill:#000000; stroke:#000000;" points=" 960 93 969 99 959 103 961 98" /><path style="fill:none; stroke:#000000;stroke-width:1" d="M1069.0 212.0 L944.0 228.0 L789.0 110.0" /><polygon style="fill:#000000; stroke:#000000;" points=" 794 120 789 110 800 112 795 115" /><path style="fill:none; stroke:#000000;stroke-width:1" d="M1030.0 103.0 L1180.0 107.0" /><polygon style="fill:#000000; stroke:#000000;" points=" 1170 102 1180 107 1170 112 1172 107" /><path style="fill:none; stroke:#000000;stroke-width:1" d="M1030.0 80.0 L1103.0 27.0" /><polygon style="fill:#000000; stroke:#000000;" points=" 1092 29 1103 27 1098 37 1097 32" /><defs><linearGradient xmlns:xlink="http://www.w3.org/1999/xlink" xlink:href="#linearGradient66FF6696FF96B6FFB6" id="linearGradient66FF6696FF96B6FFB6_1874451756" x1="0" y1="220.0" x2="0" y2="255.0" gradientUnits="userSpaceOnUse" xlink:type="simple" xlink:actuate="onLoad" xlink:show="other" /><linearGradient id="linearGradient66FF6696FF96B6FFB6"><stop style="stop-color:#66FF66;stop-opacity:1;" offset="0.0" id="stop66FF66" /><stop style="stop-color:#96FF96;stop-opacity:1;" offset="0.5" id="stop96FF96" /><stop style="stop-color:#B6FFB6;stop-opacity:1;" offset="1.0" id="stopB6FFB6" /></linearGradient><linearGradient xmlns:xlink="http://www.w3.org/1999/xlink" xlink:href="#linearGradientF8FBFEEDF5FCDEEDFAD4E7F8E2E5E9" id="linearGradientF8FBFEEDF5FCDEEDFAD4E7F8E2E5E9_1635663531" x1="0" y1="340.0" x2="0" y2="446.0" gradientUnits="userSpaceOnUse" xlink:type="simple" xlink:actuate="onLoad" xlink:show="other" /><linearGradient id="linearGradientF8FBFEEDF5FCDEEDFAD4E7F8E2E5E9"><stop style="stop-color:#F8FBFE;stop-opacity:1;" offset="0.0" id="stopF8FBFE" /><stop style="stop-color:#EDF5FC;stop-opacity:1;" offset="0.25" id="stopEDF5FC" /><stop style="stop-color:#DEEDFA;stop-opacity:1;" offset="0.5" id="stopDEEDFA" /><stop style="stop-color:#D4E7F8;stop-opacity:1;" offset="0.75" id="stopD4E7F8" /><stop style="stop-color:#E2E5E9;stop-opacity:1;" offset="1.0" id="stopE2E5E9" /></linearGradient><linearGradient xmlns:xlink="http://www.w3.org/1999/xlink" xlink:href="#linearGradientFAFBFCFFFFCC" id="linearGradientFAFBFCFFFFCC_1698805340" x1="0" y1="360.0" x2="0" y2="420.0" gradientUnits="userSpaceOnUse" xlink:type="simple" xlink:actuate="onLoad" xlink:show="other" /><linearGradient id="linearGradientFAFBFCFFFFCC"><stop style="stop-color:#FAFBFC;stop-opacity:1;" offset="0.0" id="stopFAFBFC" /><stop style="stop-color:#FFFFCC;stop-opacity:1;" offset="1.0" id="stopFFFFCC" /></linearGradient><linearGradient xmlns:xlink="http://www.w3.org/1999/xlink" xlink:href="#linearGradientF8FBFEEDF5FCDEEDFAD4E7F8E2E5E9" id="linearGradientF8FBFEEDF5FCDEEDFAD4E7F8E2E5E9_541275280" x1="0" y1="340.0" x2="0" y2="446.0" gradientUnits="userSpaceOnUse" xlink:type="simple" xlink:actuate="onLoad" xlink:show="other" /><linearGradient xmlns:xlink="http://www.w3.org/1999/xlink" xlink:href="#linearGradientF8FBFEEDF5FCDEEDFAD4E7F8E2E5E9" id="linearGradientF8FBFEEDF5FCDEEDFAD4E7F8E2E5E9_20110601" x1="0" y1="40.0" x2="0" y2="146.0" gradientUnits="userSpaceOnUse" xlink:type="simple" xlink:actuate="onLoad" xlink:show="other" /><linearGradient xmlns:xlink="http://www.w3.org/1999/xlink" xlink:href="#linearGradientFAFBFCFFFFCC" id="linearGradientFAFBFCFFFFCC_287912162" x1="0" y1="59.0" x2="0" y2="119.0" gradientUnits="userSpaceOnUse" xlink:type="simple" xlink:actuate="onLoad" xlink:show="other" /><linearGradient xmlns:xlink="http://www.w3.org/1999/xlink" xlink:href="#linearGradientF8FBFEEDF5FCDEEDFAD4E7F8E2E5E9" id="linearGradientF8FBFEEDF5FCDEEDFAD4E7F8E2E5E9_2041743309" x1="0" y1="170.0" x2="0" y2="276.0" gradientUnits="userSpaceOnUse" xlink:type="simple" xlink:actuate="onLoad" xlink:show="other" /><linearGradient xmlns:xlink="http://www.w3.org/1999/xlink" xlink:href="#linearGradientFF6666FF9696FFB6B6" id="linearGradientFF6666FF9696FFB6B6_1080871903" x1="0" y1="90.0" x2="0" y2="125.0" gradientUnits="userSpaceOnUse" xlink:type="simple" xlink:actuate="onLoad" xlink:show="other" /><linearGradient id="linearGradientFF6666FF9696FFB6B6"><stop style="stop-color:#FF6666;stop-opacity:1;" offset="0.0" id="stopFF6666" /><stop style="stop-color:#FF9696;stop-opacity:1;" offset="0.5" id="stopFF9696" /><stop style="stop-color:#FFB6B6;stop-opacity:1;" offset="1.0" id="stopFFB6B6" /></linearGradient><linearGradient xmlns:xlink="http://www.w3.org/1999/xlink" xlink:href="#linearGradientFFFF66FFFF96FFFFB6" id="linearGradientFFFF66FFFF96FFFFB6_1461820494" x1="0" y1="0.0" x2="0" y2="35.0" gradientUnits="userSpaceOnUse" xlink:type="simple" xlink:actuate="onLoad" xlink:show="other" /><linearGradient id="linearGradientFFFF66FFFF96FFFFB6"><stop style="stop-color:#FFFF66;stop-opacity:1;" offset="0.0" id="stopFFFF66" /><stop style="stop-color:#FFFF96;stop-opacity:1;" offset="0.5" id="stopFFFF96" /><stop style="stop-color:#FFFFB6;stop-opacity:1;" offset="1.0" id="stopFFFFB6" /></linearGradient><linearGradient xmlns:xlink="http://www.w3.org/1999/xlink" xlink:href="#linearGradientFFFF66FFFF96FFFFB6" id="linearGradientFFFF66FFFF96FFFFB6_257366120" x1="0" y1="514.0" x2="0" y2="549.0" gradientUnits="userSpaceOnUse" xlink:type="simple" xlink:actuate="onLoad" xlink:show="other" /></defs></svg>
